<mxfile host="app.diagrams.net" agent="Mozilla/5.0 (Windows NT 10.0; Win64; x64) AppleWebKit/537.36 (KHTML, like Gecko) Chrome/135.0.0.0 Safari/537.36" version="26.2.12">
  <diagram name="Página-1" id="6qUg1oYqnROrhwcaI_9E">
    <mxGraphModel dx="2433" dy="2034" grid="1" gridSize="10" guides="1" tooltips="1" connect="1" arrows="1" fold="1" page="1" pageScale="1" pageWidth="827" pageHeight="1169" math="0" shadow="0">
      <root>
        <mxCell id="0" />
        <mxCell id="1" parent="0" />
        <mxCell id="Achjpn-_XmZuxDq3fCtZ-28" value="CUENTA" style="shape=rhombus;perimeter=rhombusPerimeter;whiteSpace=wrap;html=1;align=center;" parent="1" vertex="1">
          <mxGeometry x="-290" y="-616.25" width="80" height="60" as="geometry" />
        </mxCell>
        <mxCell id="Achjpn-_XmZuxDq3fCtZ-31" value="" style="endArrow=none;html=1;rounded=0;exitX=0.5;exitY=1;exitDx=0;exitDy=0;entryX=0.5;entryY=0;entryDx=0;entryDy=0;" parent="1" source="Achjpn-_XmZuxDq3fCtZ-28" target="hm5V5F6ZDs41xRnVWTLm-10" edge="1">
          <mxGeometry relative="1" as="geometry">
            <mxPoint y="-580" as="sourcePoint" />
            <mxPoint x="-163.5" y="-510" as="targetPoint" />
          </mxGeometry>
        </mxCell>
        <mxCell id="Achjpn-_XmZuxDq3fCtZ-32" value="N" style="resizable=0;html=1;whiteSpace=wrap;align=right;verticalAlign=bottom;" parent="Achjpn-_XmZuxDq3fCtZ-31" connectable="0" vertex="1">
          <mxGeometry x="1" relative="1" as="geometry">
            <mxPoint x="16" y="-10" as="offset" />
          </mxGeometry>
        </mxCell>
        <mxCell id="Achjpn-_XmZuxDq3fCtZ-124" value="" style="endArrow=none;html=1;rounded=0;exitX=1;exitY=0.5;exitDx=0;exitDy=0;entryX=0;entryY=0.5;entryDx=0;entryDy=0;" parent="1" source="hm5V5F6ZDs41xRnVWTLm-8" target="hm5V5F6ZDs41xRnVWTLm-10" edge="1">
          <mxGeometry relative="1" as="geometry">
            <mxPoint x="-320" y="-530" as="sourcePoint" />
            <mxPoint x="-263.5" y="-510" as="targetPoint" />
          </mxGeometry>
        </mxCell>
        <mxCell id="Achjpn-_XmZuxDq3fCtZ-143" value="CUENTA" style="shape=rhombus;perimeter=rhombusPerimeter;whiteSpace=wrap;html=1;align=center;" parent="1" vertex="1">
          <mxGeometry x="-260" y="-458.75" width="80" height="60" as="geometry" />
        </mxCell>
        <mxCell id="Achjpn-_XmZuxDq3fCtZ-146" value="" style="endArrow=none;html=1;rounded=0;entryX=0.5;entryY=1;entryDx=0;entryDy=0;exitX=0.5;exitY=0;exitDx=0;exitDy=0;" parent="1" source="Achjpn-_XmZuxDq3fCtZ-143" target="hm5V5F6ZDs41xRnVWTLm-10" edge="1">
          <mxGeometry relative="1" as="geometry">
            <mxPoint x="-180" y="-440" as="sourcePoint" />
            <mxPoint x="-213.5" y="-490" as="targetPoint" />
          </mxGeometry>
        </mxCell>
        <mxCell id="Achjpn-_XmZuxDq3fCtZ-147" value="1" style="resizable=0;html=1;whiteSpace=wrap;align=right;verticalAlign=bottom;" parent="Achjpn-_XmZuxDq3fCtZ-146" connectable="0" vertex="1">
          <mxGeometry x="1" relative="1" as="geometry">
            <mxPoint x="20" y="20" as="offset" />
          </mxGeometry>
        </mxCell>
        <mxCell id="hm5V5F6ZDs41xRnVWTLm-3" value="&lt;div style=&quot;text-align: left;&quot;&gt;Direccion&lt;/div&gt;" style="ellipse;whiteSpace=wrap;html=1;align=center;" parent="1" vertex="1">
          <mxGeometry x="230" y="-960" width="100" height="40" as="geometry" />
        </mxCell>
        <mxCell id="hm5V5F6ZDs41xRnVWTLm-4" value="&lt;font style=&quot;font-size: 14px;&quot;&gt;&lt;b&gt;Clientes&lt;/b&gt;&lt;/font&gt;" style="whiteSpace=wrap;html=1;align=center;" parent="1" vertex="1">
          <mxGeometry x="180" y="-830" width="100" height="40" as="geometry" />
        </mxCell>
        <mxCell id="hm5V5F6ZDs41xRnVWTLm-5" value="&lt;div style=&quot;text-align: left;&quot;&gt;licencia_conducir&lt;/div&gt;" style="ellipse;whiteSpace=wrap;html=1;align=center;" parent="1" vertex="1">
          <mxGeometry x="280" y="-900" width="120" height="40" as="geometry" />
        </mxCell>
        <mxCell id="hm5V5F6ZDs41xRnVWTLm-7" value="&lt;div style=&quot;text-align: left;&quot;&gt;Nombre&lt;/div&gt;" style="ellipse;whiteSpace=wrap;html=1;align=center;" parent="1" vertex="1">
          <mxGeometry x="120" y="-960" width="100" height="40" as="geometry" />
        </mxCell>
        <mxCell id="hm5V5F6ZDs41xRnVWTLm-8" value="&lt;div style=&quot;text-align: left;&quot;&gt;Ciudad&lt;/div&gt;" style="ellipse;whiteSpace=wrap;html=1;align=center;" parent="1" vertex="1">
          <mxGeometry x="-420" y="-530" width="100" height="40" as="geometry" />
        </mxCell>
        <mxCell id="hm5V5F6ZDs41xRnVWTLm-10" value="&lt;span style=&quot;font-size: 14px;&quot;&gt;&lt;b&gt;Surcursales&lt;/b&gt;&lt;/span&gt;" style="whiteSpace=wrap;html=1;align=center;" parent="1" vertex="1">
          <mxGeometry x="-270" y="-530" width="100" height="40" as="geometry" />
        </mxCell>
        <mxCell id="hm5V5F6ZDs41xRnVWTLm-11" value="" style="endArrow=none;html=1;rounded=0;entryX=0.5;entryY=0;entryDx=0;entryDy=0;exitX=0.5;exitY=1;exitDx=0;exitDy=0;" parent="1" source="hm5V5F6ZDs41xRnVWTLm-7" target="hm5V5F6ZDs41xRnVWTLm-4" edge="1">
          <mxGeometry relative="1" as="geometry">
            <mxPoint x="150" y="-798.75" as="sourcePoint" />
            <mxPoint x="220" y="-718.75" as="targetPoint" />
          </mxGeometry>
        </mxCell>
        <mxCell id="hm5V5F6ZDs41xRnVWTLm-12" value="cedula" style="ellipse;whiteSpace=wrap;html=1;align=center;fontStyle=4;" parent="1" vertex="1">
          <mxGeometry x="70" y="-890" width="100" height="40" as="geometry" />
        </mxCell>
        <mxCell id="hm5V5F6ZDs41xRnVWTLm-13" value="" style="endArrow=none;html=1;rounded=0;entryX=0.5;entryY=0;entryDx=0;entryDy=0;exitX=0.5;exitY=1;exitDx=0;exitDy=0;" parent="1" source="hm5V5F6ZDs41xRnVWTLm-3" target="hm5V5F6ZDs41xRnVWTLm-4" edge="1">
          <mxGeometry relative="1" as="geometry">
            <mxPoint x="300" y="-770" as="sourcePoint" />
            <mxPoint x="270" y="-690" as="targetPoint" />
          </mxGeometry>
        </mxCell>
        <mxCell id="hm5V5F6ZDs41xRnVWTLm-14" value="" style="endArrow=none;html=1;rounded=0;exitX=0.5;exitY=1;exitDx=0;exitDy=0;entryX=0.5;entryY=0;entryDx=0;entryDy=0;" parent="1" source="hm5V5F6ZDs41xRnVWTLm-5" target="hm5V5F6ZDs41xRnVWTLm-4" edge="1">
          <mxGeometry relative="1" as="geometry">
            <mxPoint x="300" y="-710" as="sourcePoint" />
            <mxPoint x="260" y="-700" as="targetPoint" />
          </mxGeometry>
        </mxCell>
        <mxCell id="hm5V5F6ZDs41xRnVWTLm-15" value="" style="endArrow=none;html=1;rounded=0;exitX=0.5;exitY=1;exitDx=0;exitDy=0;entryX=0.5;entryY=0;entryDx=0;entryDy=0;" parent="1" source="hm5V5F6ZDs41xRnVWTLm-12" target="hm5V5F6ZDs41xRnVWTLm-4" edge="1">
          <mxGeometry relative="1" as="geometry">
            <mxPoint x="280" y="-780" as="sourcePoint" />
            <mxPoint x="250" y="-810" as="targetPoint" />
          </mxGeometry>
        </mxCell>
        <mxCell id="hm5V5F6ZDs41xRnVWTLm-16" value="OFRECE" style="shape=rhombus;perimeter=rhombusPerimeter;whiteSpace=wrap;html=1;align=center;" parent="1" vertex="1">
          <mxGeometry x="-200" y="-690" width="80" height="60" as="geometry" />
        </mxCell>
        <mxCell id="hm5V5F6ZDs41xRnVWTLm-23" value="&lt;span style=&quot;font-size: 14px;&quot;&gt;&lt;b&gt;&amp;nbsp;Vehículos&amp;nbsp;&lt;/b&gt;&lt;/span&gt;" style="whiteSpace=wrap;html=1;align=center;" parent="1" vertex="1">
          <mxGeometry x="-270" y="-358.75" width="100" height="40" as="geometry" />
        </mxCell>
        <mxCell id="hm5V5F6ZDs41xRnVWTLm-24" value="&lt;span style=&quot;font-size: 14px;&quot;&gt;&lt;b&gt;Historial_Mantenimiento&lt;/b&gt;&lt;/span&gt;" style="whiteSpace=wrap;html=1;align=center;" parent="1" vertex="1">
          <mxGeometry x="-520" y="-206.25" width="176" height="40" as="geometry" />
        </mxCell>
        <mxCell id="hm5V5F6ZDs41xRnVWTLm-25" value="&lt;div style=&quot;text-align: left;&quot;&gt;Fecha_realizacion&lt;/div&gt;" style="ellipse;whiteSpace=wrap;html=1;align=center;" parent="1" vertex="1">
          <mxGeometry x="-710" y="-262.62" width="130" height="40" as="geometry" />
        </mxCell>
        <mxCell id="hm5V5F6ZDs41xRnVWTLm-26" value="&lt;div style=&quot;text-align: left;&quot;&gt;Tipo mantenimiento&lt;/div&gt;" style="ellipse;whiteSpace=wrap;html=1;align=center;" parent="1" vertex="1">
          <mxGeometry x="-710" y="-207.62" width="130" height="40" as="geometry" />
        </mxCell>
        <mxCell id="hm5V5F6ZDs41xRnVWTLm-27" value="&lt;div style=&quot;text-align: left;&quot;&gt;Taller_responsable&lt;/div&gt;" style="ellipse;whiteSpace=wrap;html=1;align=center;" parent="1" vertex="1">
          <mxGeometry x="-720" y="-157.12" width="140" height="40" as="geometry" />
        </mxCell>
        <mxCell id="hm5V5F6ZDs41xRnVWTLm-28" value="" style="endArrow=none;html=1;rounded=0;exitX=1;exitY=0.5;exitDx=0;exitDy=0;entryX=0;entryY=0.5;entryDx=0;entryDy=0;" parent="1" source="hm5V5F6ZDs41xRnVWTLm-27" target="hm5V5F6ZDs41xRnVWTLm-24" edge="1">
          <mxGeometry relative="1" as="geometry">
            <mxPoint x="24.5" y="-490" as="sourcePoint" />
            <mxPoint x="78" y="-440" as="targetPoint" />
          </mxGeometry>
        </mxCell>
        <mxCell id="hm5V5F6ZDs41xRnVWTLm-29" value="" style="endArrow=none;html=1;rounded=0;exitX=1;exitY=0.5;exitDx=0;exitDy=0;entryX=0;entryY=0.5;entryDx=0;entryDy=0;" parent="1" source="hm5V5F6ZDs41xRnVWTLm-26" target="hm5V5F6ZDs41xRnVWTLm-24" edge="1">
          <mxGeometry relative="1" as="geometry">
            <mxPoint x="-222" y="20" as="sourcePoint" />
            <mxPoint x="-282" y="-60" as="targetPoint" />
          </mxGeometry>
        </mxCell>
        <mxCell id="hm5V5F6ZDs41xRnVWTLm-30" value="" style="endArrow=none;html=1;rounded=0;exitX=1;exitY=0.5;exitDx=0;exitDy=0;entryX=0;entryY=0.5;entryDx=0;entryDy=0;" parent="1" source="hm5V5F6ZDs41xRnVWTLm-25" target="hm5V5F6ZDs41xRnVWTLm-24" edge="1">
          <mxGeometry relative="1" as="geometry">
            <mxPoint x="-302" y="10" as="sourcePoint" />
            <mxPoint x="-282" y="-60" as="targetPoint" />
          </mxGeometry>
        </mxCell>
        <mxCell id="hm5V5F6ZDs41xRnVWTLm-32" value="&lt;span style=&quot;font-size: 14px;&quot;&gt;&lt;b&gt;Renta&lt;/b&gt;&lt;/span&gt;" style="whiteSpace=wrap;html=1;align=center;" parent="1" vertex="1">
          <mxGeometry x="180" y="-530" width="100" height="40" as="geometry" />
        </mxCell>
        <mxCell id="hm5V5F6ZDs41xRnVWTLm-33" value="LLEVA" style="shape=rhombus;perimeter=rhombusPerimeter;whiteSpace=wrap;html=1;align=center;" parent="1" vertex="1">
          <mxGeometry x="-420" y="-290" width="80" height="60" as="geometry" />
        </mxCell>
        <mxCell id="hm5V5F6ZDs41xRnVWTLm-34" value="" style="endArrow=none;html=1;rounded=0;exitX=0.5;exitY=1;exitDx=0;exitDy=0;entryX=0.5;entryY=0;entryDx=0;entryDy=0;" parent="1" source="Achjpn-_XmZuxDq3fCtZ-143" target="hm5V5F6ZDs41xRnVWTLm-23" edge="1">
          <mxGeometry relative="1" as="geometry">
            <mxPoint x="-136" y="-580" as="sourcePoint" />
            <mxPoint x="-153.5" y="-500" as="targetPoint" />
          </mxGeometry>
        </mxCell>
        <mxCell id="hm5V5F6ZDs41xRnVWTLm-35" value="N" style="resizable=0;html=1;whiteSpace=wrap;align=right;verticalAlign=bottom;" parent="hm5V5F6ZDs41xRnVWTLm-34" connectable="0" vertex="1">
          <mxGeometry x="1" relative="1" as="geometry">
            <mxPoint x="16" y="-10" as="offset" />
          </mxGeometry>
        </mxCell>
        <mxCell id="hm5V5F6ZDs41xRnVWTLm-36" value="&lt;div style=&quot;text-align: left;&quot;&gt;Categoría&lt;/div&gt;" style="ellipse;whiteSpace=wrap;html=1;align=center;" parent="1" vertex="1">
          <mxGeometry x="-430" y="-420" width="100" height="40" as="geometry" />
        </mxCell>
        <mxCell id="hm5V5F6ZDs41xRnVWTLm-37" value="" style="endArrow=none;html=1;rounded=0;exitX=1;exitY=0.5;exitDx=0;exitDy=0;entryX=0;entryY=0.5;entryDx=0;entryDy=0;" parent="1" source="hm5V5F6ZDs41xRnVWTLm-36" target="hm5V5F6ZDs41xRnVWTLm-23" edge="1">
          <mxGeometry relative="1" as="geometry">
            <mxPoint x="-310" y="-500" as="sourcePoint" />
            <mxPoint x="-260" y="-500" as="targetPoint" />
          </mxGeometry>
        </mxCell>
        <mxCell id="hm5V5F6ZDs41xRnVWTLm-38" value="&lt;div style=&quot;text-align: left;&quot;&gt;Marca&lt;/div&gt;" style="ellipse;whiteSpace=wrap;html=1;align=center;" parent="1" vertex="1">
          <mxGeometry x="-430" y="-358.75" width="100" height="40" as="geometry" />
        </mxCell>
        <mxCell id="hm5V5F6ZDs41xRnVWTLm-40" value="" style="endArrow=none;html=1;rounded=0;exitX=1;exitY=0.5;exitDx=0;exitDy=0;entryX=0;entryY=0.5;entryDx=0;entryDy=0;" parent="1" source="hm5V5F6ZDs41xRnVWTLm-38" target="hm5V5F6ZDs41xRnVWTLm-23" edge="1">
          <mxGeometry relative="1" as="geometry">
            <mxPoint x="-310" y="-390" as="sourcePoint" />
            <mxPoint x="-260" y="-329" as="targetPoint" />
          </mxGeometry>
        </mxCell>
        <mxCell id="hm5V5F6ZDs41xRnVWTLm-42" value="" style="endArrow=none;html=1;rounded=0;exitX=0;exitY=0.5;exitDx=0;exitDy=0;entryX=1;entryY=0.5;entryDx=0;entryDy=0;" parent="1" source="hm5V5F6ZDs41xRnVWTLm-43" target="hm5V5F6ZDs41xRnVWTLm-47" edge="1">
          <mxGeometry relative="1" as="geometry">
            <mxPoint x="189.5" y="-261.6" as="sourcePoint" />
            <mxPoint x="249.5" y="-291.85" as="targetPoint" />
          </mxGeometry>
        </mxCell>
        <mxCell id="hm5V5F6ZDs41xRnVWTLm-43" value="&lt;div style=&quot;text-align: left;&quot;&gt;Capacidad_pasajeros&lt;/div&gt;" style="ellipse;whiteSpace=wrap;html=1;align=center;" parent="1" vertex="1">
          <mxGeometry x="335.00000000000006" y="-295.24" width="135" height="32.62" as="geometry" />
        </mxCell>
        <mxCell id="hm5V5F6ZDs41xRnVWTLm-45" value="&lt;div style=&quot;text-align: left;&quot;&gt;Tipo_combustible&lt;/div&gt;" style="ellipse;whiteSpace=wrap;html=1;align=center;" parent="1" vertex="1">
          <mxGeometry x="334.50000000000006" y="-247.62" width="115" height="41.37" as="geometry" />
        </mxCell>
        <mxCell id="hm5V5F6ZDs41xRnVWTLm-46" value="&lt;div style=&quot;text-align: left;&quot;&gt;Precio_dia_renta&lt;/div&gt;" style="ellipse;whiteSpace=wrap;html=1;align=center;" parent="1" vertex="1">
          <mxGeometry x="339.5" y="-197.62" width="110.5" height="27.62" as="geometry" />
        </mxCell>
        <mxCell id="hm5V5F6ZDs41xRnVWTLm-47" value="&lt;span style=&quot;text-align: left;&quot;&gt;&lt;b&gt;&lt;font style=&quot;font-size: 14px;&quot;&gt;Características&lt;/font&gt;&lt;/b&gt;&lt;/span&gt;" style="whiteSpace=wrap;html=1;align=center;" parent="1" vertex="1">
          <mxGeometry x="140" y="-247.62" width="120" height="40" as="geometry" />
        </mxCell>
        <mxCell id="hm5V5F6ZDs41xRnVWTLm-49" value="" style="endArrow=none;html=1;rounded=0;exitX=0;exitY=0.5;exitDx=0;exitDy=0;entryX=1;entryY=0.5;entryDx=0;entryDy=0;" parent="1" source="hm5V5F6ZDs41xRnVWTLm-45" target="hm5V5F6ZDs41xRnVWTLm-47" edge="1">
          <mxGeometry relative="1" as="geometry">
            <mxPoint x="239.5" y="-234.12" as="sourcePoint" />
            <mxPoint x="268.50000000000006" y="-173.12" as="targetPoint" />
          </mxGeometry>
        </mxCell>
        <mxCell id="hm5V5F6ZDs41xRnVWTLm-50" value="" style="endArrow=none;html=1;rounded=0;exitX=0;exitY=0.5;exitDx=0;exitDy=0;entryX=1;entryY=0.5;entryDx=0;entryDy=0;" parent="1" source="hm5V5F6ZDs41xRnVWTLm-46" target="hm5V5F6ZDs41xRnVWTLm-47" edge="1">
          <mxGeometry relative="1" as="geometry">
            <mxPoint x="239.5" y="-173.12" as="sourcePoint" />
            <mxPoint x="269.50000000000006" y="-173.12" as="targetPoint" />
          </mxGeometry>
        </mxCell>
        <mxCell id="hm5V5F6ZDs41xRnVWTLm-51" value="TIENE" style="shape=rhombus;perimeter=rhombusPerimeter;whiteSpace=wrap;html=1;align=center;" parent="1" vertex="1">
          <mxGeometry x="-260" y="-290" width="80" height="60" as="geometry" />
        </mxCell>
        <mxCell id="hm5V5F6ZDs41xRnVWTLm-52" value="" style="endArrow=none;html=1;rounded=0;entryX=0.5;entryY=1;entryDx=0;entryDy=0;exitX=0.5;exitY=0;exitDx=0;exitDy=0;" parent="1" source="hm5V5F6ZDs41xRnVWTLm-51" target="hm5V5F6ZDs41xRnVWTLm-23" edge="1">
          <mxGeometry relative="1" as="geometry">
            <mxPoint x="100" y="-117.5" as="sourcePoint" />
            <mxPoint x="60" y="-175.25" as="targetPoint" />
          </mxGeometry>
        </mxCell>
        <mxCell id="hm5V5F6ZDs41xRnVWTLm-53" value="1" style="resizable=0;html=1;whiteSpace=wrap;align=right;verticalAlign=bottom;" parent="hm5V5F6ZDs41xRnVWTLm-52" connectable="0" vertex="1">
          <mxGeometry x="1" relative="1" as="geometry">
            <mxPoint x="20" y="20" as="offset" />
          </mxGeometry>
        </mxCell>
        <mxCell id="hm5V5F6ZDs41xRnVWTLm-54" value="" style="endArrow=none;html=1;rounded=0;exitX=0.5;exitY=1;exitDx=0;exitDy=0;" parent="1" source="hm5V5F6ZDs41xRnVWTLm-51" target="hm5V5F6ZDs41xRnVWTLm-47" edge="1">
          <mxGeometry relative="1" as="geometry">
            <mxPoint x="144" y="-257.5" as="sourcePoint" />
            <mxPoint x="60" y="-36.5" as="targetPoint" />
          </mxGeometry>
        </mxCell>
        <mxCell id="hm5V5F6ZDs41xRnVWTLm-55" value="N" style="resizable=0;html=1;whiteSpace=wrap;align=right;verticalAlign=bottom;" parent="hm5V5F6ZDs41xRnVWTLm-54" connectable="0" vertex="1">
          <mxGeometry x="1" relative="1" as="geometry">
            <mxPoint x="-3" y="-17" as="offset" />
          </mxGeometry>
        </mxCell>
        <mxCell id="hm5V5F6ZDs41xRnVWTLm-56" value="&lt;div style=&quot;text-align: left;&quot;&gt;seguros&lt;/div&gt;" style="ellipse;whiteSpace=wrap;html=1;align=center;" parent="1" vertex="1">
          <mxGeometry x="410" y="-681.25" width="80" height="40" as="geometry" />
        </mxCell>
        <mxCell id="hm5V5F6ZDs41xRnVWTLm-57" value="&lt;div style=&quot;text-align: left;&quot;&gt;servicios&lt;/div&gt;" style="ellipse;whiteSpace=wrap;html=1;align=center;" parent="1" vertex="1">
          <mxGeometry x="410" y="-730" width="80" height="40" as="geometry" />
        </mxCell>
        <mxCell id="hm5V5F6ZDs41xRnVWTLm-58" value="" style="endArrow=none;html=1;rounded=0;entryX=0;entryY=1;entryDx=0;entryDy=0;exitX=0.5;exitY=0;exitDx=0;exitDy=0;" parent="1" source="hm5V5F6ZDs41xRnVWTLm-33" target="hm5V5F6ZDs41xRnVWTLm-23" edge="1">
          <mxGeometry relative="1" as="geometry">
            <mxPoint x="-210" y="-280" as="sourcePoint" />
            <mxPoint x="-210" y="-309" as="targetPoint" />
          </mxGeometry>
        </mxCell>
        <mxCell id="hm5V5F6ZDs41xRnVWTLm-59" value="1" style="resizable=0;html=1;whiteSpace=wrap;align=right;verticalAlign=bottom;" parent="hm5V5F6ZDs41xRnVWTLm-58" connectable="0" vertex="1">
          <mxGeometry x="1" relative="1" as="geometry">
            <mxPoint y="29" as="offset" />
          </mxGeometry>
        </mxCell>
        <mxCell id="hm5V5F6ZDs41xRnVWTLm-60" value="" style="endArrow=none;html=1;rounded=0;exitX=0.5;exitY=1;exitDx=0;exitDy=0;entryX=0.795;entryY=0.05;entryDx=0;entryDy=0;entryPerimeter=0;" parent="1" source="hm5V5F6ZDs41xRnVWTLm-33" target="hm5V5F6ZDs41xRnVWTLm-24" edge="1">
          <mxGeometry relative="1" as="geometry">
            <mxPoint x="-176" y="-143" as="sourcePoint" />
            <mxPoint x="-317" y="-219" as="targetPoint" />
          </mxGeometry>
        </mxCell>
        <mxCell id="hm5V5F6ZDs41xRnVWTLm-61" value="N" style="resizable=0;html=1;whiteSpace=wrap;align=right;verticalAlign=bottom;" parent="hm5V5F6ZDs41xRnVWTLm-60" connectable="0" vertex="1">
          <mxGeometry x="1" relative="1" as="geometry">
            <mxPoint x="16" y="-10" as="offset" />
          </mxGeometry>
        </mxCell>
        <mxCell id="hm5V5F6ZDs41xRnVWTLm-62" value="&lt;div style=&quot;text-align: left;&quot;&gt;fecha_inicio&lt;/div&gt;" style="ellipse;whiteSpace=wrap;html=1;align=center;" parent="1" vertex="1">
          <mxGeometry x="354" y="-576.25" width="120" height="40" as="geometry" />
        </mxCell>
        <mxCell id="hm5V5F6ZDs41xRnVWTLm-63" value="&lt;div style=&quot;text-align: left;&quot;&gt;fecha_fin&lt;/div&gt;" style="ellipse;whiteSpace=wrap;html=1;align=center;" parent="1" vertex="1">
          <mxGeometry x="354" y="-530" width="120" height="40" as="geometry" />
        </mxCell>
        <mxCell id="hm5V5F6ZDs41xRnVWTLm-64" value="&lt;div style=&quot;text-align: left;&quot;&gt;costo_total&lt;/div&gt;" style="ellipse;whiteSpace=wrap;html=1;align=center;" parent="1" vertex="1">
          <mxGeometry x="360" y="-624" width="120" height="40" as="geometry" />
        </mxCell>
        <mxCell id="hm5V5F6ZDs41xRnVWTLm-65" value="ENTREGA" style="shape=rhombus;perimeter=rhombusPerimeter;whiteSpace=wrap;html=1;align=center;" parent="1" vertex="1">
          <mxGeometry x="-40" y="-450" width="80" height="60" as="geometry" />
        </mxCell>
        <mxCell id="hm5V5F6ZDs41xRnVWTLm-66" value="&lt;div style=&quot;text-align: left;&quot;&gt;metodo_renta&lt;/div&gt;" style="ellipse;whiteSpace=wrap;html=1;align=center;" parent="1" vertex="1">
          <mxGeometry x="380" y="-475" width="90" height="38.75" as="geometry" />
        </mxCell>
        <mxCell id="hm5V5F6ZDs41xRnVWTLm-67" value="&lt;div style=&quot;text-align: left;&quot;&gt;Virtual&lt;/div&gt;" style="ellipse;whiteSpace=wrap;html=1;align=center;" parent="1" vertex="1">
          <mxGeometry x="480" y="-500" width="80" height="38.75" as="geometry" />
        </mxCell>
        <mxCell id="hm5V5F6ZDs41xRnVWTLm-68" value="&lt;div style=&quot;text-align: left;&quot;&gt;Presencial&lt;/div&gt;" style="ellipse;whiteSpace=wrap;html=1;align=center;" parent="1" vertex="1">
          <mxGeometry x="480" y="-450" width="80" height="38.75" as="geometry" />
        </mxCell>
        <mxCell id="hm5V5F6ZDs41xRnVWTLm-69" value="" style="endArrow=none;html=1;rounded=0;exitX=0;exitY=0.5;exitDx=0;exitDy=0;entryX=1;entryY=0.5;entryDx=0;entryDy=0;" parent="1" source="hm5V5F6ZDs41xRnVWTLm-66" target="hm5V5F6ZDs41xRnVWTLm-32" edge="1">
          <mxGeometry relative="1" as="geometry">
            <mxPoint x="450" y="-673.25" as="sourcePoint" />
            <mxPoint x="430" y="-773.25" as="targetPoint" />
          </mxGeometry>
        </mxCell>
        <mxCell id="hm5V5F6ZDs41xRnVWTLm-70" value="" style="endArrow=none;html=1;rounded=0;exitX=0;exitY=0.5;exitDx=0;exitDy=0;entryX=1;entryY=0.5;entryDx=0;entryDy=0;" parent="1" source="hm5V5F6ZDs41xRnVWTLm-67" target="hm5V5F6ZDs41xRnVWTLm-66" edge="1">
          <mxGeometry relative="1" as="geometry">
            <mxPoint x="520" y="-533.25" as="sourcePoint" />
            <mxPoint x="500" y="-633.25" as="targetPoint" />
          </mxGeometry>
        </mxCell>
        <mxCell id="hm5V5F6ZDs41xRnVWTLm-71" value="" style="endArrow=none;html=1;rounded=0;exitX=0;exitY=0.5;exitDx=0;exitDy=0;entryX=1;entryY=0.5;entryDx=0;entryDy=0;" parent="1" source="hm5V5F6ZDs41xRnVWTLm-68" target="hm5V5F6ZDs41xRnVWTLm-66" edge="1">
          <mxGeometry relative="1" as="geometry">
            <mxPoint x="480" y="-470.25" as="sourcePoint" />
            <mxPoint x="460" y="-443.25" as="targetPoint" />
          </mxGeometry>
        </mxCell>
        <mxCell id="hm5V5F6ZDs41xRnVWTLm-72" value="" style="endArrow=none;html=1;rounded=0;exitX=0;exitY=0.5;exitDx=0;exitDy=0;entryX=1;entryY=0.5;entryDx=0;entryDy=0;" parent="1" source="hm5V5F6ZDs41xRnVWTLm-62" target="hm5V5F6ZDs41xRnVWTLm-32" edge="1">
          <mxGeometry relative="1" as="geometry">
            <mxPoint x="310" y="-583.25" as="sourcePoint" />
            <mxPoint x="270" y="-536.25" as="targetPoint" />
          </mxGeometry>
        </mxCell>
        <mxCell id="hm5V5F6ZDs41xRnVWTLm-73" value="" style="endArrow=none;html=1;rounded=0;exitX=0;exitY=0.5;exitDx=0;exitDy=0;entryX=1;entryY=0.5;entryDx=0;entryDy=0;" parent="1" source="hm5V5F6ZDs41xRnVWTLm-63" target="hm5V5F6ZDs41xRnVWTLm-32" edge="1">
          <mxGeometry relative="1" as="geometry">
            <mxPoint x="300" y="-526.25" as="sourcePoint" />
            <mxPoint x="270" y="-536.25" as="targetPoint" />
          </mxGeometry>
        </mxCell>
        <mxCell id="hm5V5F6ZDs41xRnVWTLm-74" value="" style="endArrow=none;html=1;rounded=0;exitX=0;exitY=0.5;exitDx=0;exitDy=0;entryX=1;entryY=0.5;entryDx=0;entryDy=0;" parent="1" source="hm5V5F6ZDs41xRnVWTLm-64" target="hm5V5F6ZDs41xRnVWTLm-32" edge="1">
          <mxGeometry relative="1" as="geometry">
            <mxPoint x="300" y="-476.25" as="sourcePoint" />
            <mxPoint x="270" y="-536.25" as="targetPoint" />
          </mxGeometry>
        </mxCell>
        <mxCell id="hm5V5F6ZDs41xRnVWTLm-75" value="ADQUIRIR" style="shape=rhombus;perimeter=rhombusPerimeter;whiteSpace=wrap;html=1;align=center;" parent="1" vertex="1">
          <mxGeometry x="295" y="-710" width="80" height="60" as="geometry" />
        </mxCell>
        <mxCell id="hm5V5F6ZDs41xRnVWTLm-77" value="" style="endArrow=none;html=1;rounded=0;exitX=1;exitY=0.5;exitDx=0;exitDy=0;entryX=0;entryY=0.5;entryDx=0;entryDy=0;" parent="1" source="hm5V5F6ZDs41xRnVWTLm-75" target="hm5V5F6ZDs41xRnVWTLm-57" edge="1">
          <mxGeometry relative="1" as="geometry">
            <mxPoint x="525" y="-602.25" as="sourcePoint" />
            <mxPoint x="495" y="-574.25" as="targetPoint" />
          </mxGeometry>
        </mxCell>
        <mxCell id="hm5V5F6ZDs41xRnVWTLm-78" value="" style="endArrow=none;html=1;rounded=0;exitX=1;exitY=0.5;exitDx=0;exitDy=0;entryX=0;entryY=0.5;entryDx=0;entryDy=0;" parent="1" source="hm5V5F6ZDs41xRnVWTLm-75" target="hm5V5F6ZDs41xRnVWTLm-56" edge="1">
          <mxGeometry relative="1" as="geometry">
            <mxPoint x="295" y="-651.25" as="sourcePoint" />
            <mxPoint x="275" y="-670.25" as="targetPoint" />
          </mxGeometry>
        </mxCell>
        <mxCell id="hm5V5F6ZDs41xRnVWTLm-79" value="&lt;span style=&quot;font-size: 14px;&quot;&gt;&lt;b&gt;Empresa&lt;/b&gt;&lt;/span&gt;" style="whiteSpace=wrap;html=1;align=center;" parent="1" vertex="1">
          <mxGeometry x="-330" y="-680" width="100" height="40" as="geometry" />
        </mxCell>
        <mxCell id="hm5V5F6ZDs41xRnVWTLm-80" value="" style="endArrow=none;html=1;rounded=0;entryX=0.5;entryY=1;entryDx=0;entryDy=0;exitX=0.5;exitY=0;exitDx=0;exitDy=0;" parent="1" source="Achjpn-_XmZuxDq3fCtZ-28" target="hm5V5F6ZDs41xRnVWTLm-79" edge="1">
          <mxGeometry relative="1" as="geometry">
            <mxPoint x="-210" y="-449" as="sourcePoint" />
            <mxPoint x="-210" y="-480" as="targetPoint" />
          </mxGeometry>
        </mxCell>
        <mxCell id="hm5V5F6ZDs41xRnVWTLm-81" value="1" style="resizable=0;html=1;whiteSpace=wrap;align=right;verticalAlign=bottom;" parent="hm5V5F6ZDs41xRnVWTLm-80" connectable="0" vertex="1">
          <mxGeometry x="1" relative="1" as="geometry">
            <mxPoint y="19" as="offset" />
          </mxGeometry>
        </mxCell>
        <mxCell id="hm5V5F6ZDs41xRnVWTLm-82" value="jcmorocho@utpl.edu.ec" style="text;html=1;align=center;verticalAlign=middle;whiteSpace=wrap;rounded=0;" parent="1" vertex="1">
          <mxGeometry x="-410" y="-900" width="60" height="30" as="geometry" />
        </mxCell>
        <mxCell id="b1G_TNFfmNyXQnpkvFNb-2" value="&lt;div style=&quot;text-align: left;&quot;&gt;Sede&lt;/div&gt;" style="ellipse;whiteSpace=wrap;html=1;align=center;" vertex="1" parent="1">
          <mxGeometry x="-444" y="-680" width="100" height="40" as="geometry" />
        </mxCell>
        <mxCell id="b1G_TNFfmNyXQnpkvFNb-5" value="" style="endArrow=none;html=1;rounded=0;exitX=1;exitY=0.5;exitDx=0;exitDy=0;entryX=0;entryY=0.5;entryDx=0;entryDy=0;" edge="1" parent="1" source="b1G_TNFfmNyXQnpkvFNb-2" target="hm5V5F6ZDs41xRnVWTLm-79">
          <mxGeometry relative="1" as="geometry">
            <mxPoint x="230" y="-600" as="sourcePoint" />
            <mxPoint x="210" y="-540" as="targetPoint" />
          </mxGeometry>
        </mxCell>
        <mxCell id="b1G_TNFfmNyXQnpkvFNb-8" value="RECOGE" style="shape=rhombus;perimeter=rhombusPerimeter;whiteSpace=wrap;html=1;align=center;" vertex="1" parent="1">
          <mxGeometry x="-40" y="-540" width="80" height="60" as="geometry" />
        </mxCell>
        <mxCell id="b1G_TNFfmNyXQnpkvFNb-10" value="" style="endArrow=none;html=1;rounded=0;entryX=0;entryY=0.5;entryDx=0;entryDy=0;exitX=1;exitY=0.5;exitDx=0;exitDy=0;" edge="1" parent="1" source="b1G_TNFfmNyXQnpkvFNb-8" target="hm5V5F6ZDs41xRnVWTLm-32">
          <mxGeometry relative="1" as="geometry">
            <mxPoint x="-210" y="-580" as="sourcePoint" />
            <mxPoint x="-210" y="-520" as="targetPoint" />
          </mxGeometry>
        </mxCell>
        <mxCell id="b1G_TNFfmNyXQnpkvFNb-11" value="N" style="resizable=0;html=1;whiteSpace=wrap;align=right;verticalAlign=bottom;" connectable="0" vertex="1" parent="b1G_TNFfmNyXQnpkvFNb-10">
          <mxGeometry x="1" relative="1" as="geometry">
            <mxPoint x="-10" y="-7" as="offset" />
          </mxGeometry>
        </mxCell>
        <mxCell id="b1G_TNFfmNyXQnpkvFNb-12" value="" style="endArrow=none;html=1;rounded=0;entryX=0;entryY=0.5;entryDx=0;entryDy=0;exitX=1;exitY=0.5;exitDx=0;exitDy=0;" edge="1" parent="1" source="hm5V5F6ZDs41xRnVWTLm-65" target="hm5V5F6ZDs41xRnVWTLm-32">
          <mxGeometry relative="1" as="geometry">
            <mxPoint x="-20" y="-503" as="sourcePoint" />
            <mxPoint x="180" y="-498.75" as="targetPoint" />
          </mxGeometry>
        </mxCell>
        <mxCell id="b1G_TNFfmNyXQnpkvFNb-13" value="N" style="resizable=0;html=1;whiteSpace=wrap;align=right;verticalAlign=bottom;" connectable="0" vertex="1" parent="b1G_TNFfmNyXQnpkvFNb-12">
          <mxGeometry x="1" relative="1" as="geometry">
            <mxPoint x="-10" y="30" as="offset" />
          </mxGeometry>
        </mxCell>
        <mxCell id="b1G_TNFfmNyXQnpkvFNb-14" value="" style="endArrow=none;html=1;rounded=0;entryX=0;entryY=0.5;entryDx=0;entryDy=0;exitX=1;exitY=0.5;exitDx=0;exitDy=0;" edge="1" parent="1" source="hm5V5F6ZDs41xRnVWTLm-10" target="hm5V5F6ZDs41xRnVWTLm-65">
          <mxGeometry relative="1" as="geometry">
            <mxPoint x="-170" y="-610" as="sourcePoint" />
            <mxPoint x="-170" y="-660" as="targetPoint" />
          </mxGeometry>
        </mxCell>
        <mxCell id="b1G_TNFfmNyXQnpkvFNb-15" value="1" style="resizable=0;html=1;whiteSpace=wrap;align=right;verticalAlign=bottom;" connectable="0" vertex="1" parent="b1G_TNFfmNyXQnpkvFNb-14">
          <mxGeometry x="1" relative="1" as="geometry">
            <mxPoint x="-107" y="-30" as="offset" />
          </mxGeometry>
        </mxCell>
        <mxCell id="b1G_TNFfmNyXQnpkvFNb-16" value="" style="endArrow=none;html=1;rounded=0;entryX=0;entryY=0.5;entryDx=0;entryDy=0;exitX=1;exitY=0.5;exitDx=0;exitDy=0;" edge="1" parent="1" source="hm5V5F6ZDs41xRnVWTLm-10" target="b1G_TNFfmNyXQnpkvFNb-8">
          <mxGeometry relative="1" as="geometry">
            <mxPoint x="-160" y="-500" as="sourcePoint" />
            <mxPoint x="-50" y="-519" as="targetPoint" />
          </mxGeometry>
        </mxCell>
        <mxCell id="b1G_TNFfmNyXQnpkvFNb-17" value="1" style="resizable=0;html=1;whiteSpace=wrap;align=right;verticalAlign=bottom;" connectable="0" vertex="1" parent="b1G_TNFfmNyXQnpkvFNb-16">
          <mxGeometry x="1" relative="1" as="geometry">
            <mxPoint x="-106" as="offset" />
          </mxGeometry>
        </mxCell>
        <mxCell id="b1G_TNFfmNyXQnpkvFNb-18" value="&lt;div style=&quot;text-align: left;&quot;&gt;cargo_adicional&lt;/div&gt;" style="ellipse;whiteSpace=wrap;html=1;align=center;" vertex="1" parent="1">
          <mxGeometry x="-70" y="-358.75" width="140" height="40" as="geometry" />
        </mxCell>
        <mxCell id="b1G_TNFfmNyXQnpkvFNb-19" value="" style="endArrow=none;html=1;rounded=0;exitX=0.5;exitY=1;exitDx=0;exitDy=0;entryX=0.5;entryY=0;entryDx=0;entryDy=0;" edge="1" parent="1" source="hm5V5F6ZDs41xRnVWTLm-65" target="b1G_TNFfmNyXQnpkvFNb-18">
          <mxGeometry relative="1" as="geometry">
            <mxPoint x="200" y="-579" as="sourcePoint" />
            <mxPoint x="-50" y="-400" as="targetPoint" />
          </mxGeometry>
        </mxCell>
        <mxCell id="b1G_TNFfmNyXQnpkvFNb-20" value="&lt;span style=&quot;font-size: 14px;&quot;&gt;&lt;b&gt;Membresías&lt;/b&gt;&lt;/span&gt;" style="whiteSpace=wrap;html=1;align=center;" vertex="1" parent="1">
          <mxGeometry x="-86" y="-680" width="100" height="40" as="geometry" />
        </mxCell>
        <mxCell id="b1G_TNFfmNyXQnpkvFNb-27" value="" style="endArrow=none;html=1;rounded=0;entryX=0;entryY=0.5;entryDx=0;entryDy=0;exitX=1;exitY=0.5;exitDx=0;exitDy=0;" edge="1" parent="1" source="hm5V5F6ZDs41xRnVWTLm-16" target="b1G_TNFfmNyXQnpkvFNb-20">
          <mxGeometry relative="1" as="geometry">
            <mxPoint x="50" y="-536" as="sourcePoint" />
            <mxPoint x="190" y="-493" as="targetPoint" />
          </mxGeometry>
        </mxCell>
        <mxCell id="b1G_TNFfmNyXQnpkvFNb-28" value="N" style="resizable=0;html=1;whiteSpace=wrap;align=right;verticalAlign=bottom;" connectable="0" vertex="1" parent="b1G_TNFfmNyXQnpkvFNb-27">
          <mxGeometry x="1" relative="1" as="geometry">
            <mxPoint x="-10" y="20" as="offset" />
          </mxGeometry>
        </mxCell>
        <mxCell id="b1G_TNFfmNyXQnpkvFNb-30" value="PARA" style="shape=rhombus;perimeter=rhombusPerimeter;whiteSpace=wrap;html=1;align=center;" vertex="1" parent="1">
          <mxGeometry x="60" y="-810" width="80" height="60" as="geometry" />
        </mxCell>
        <mxCell id="b1G_TNFfmNyXQnpkvFNb-31" value="CANJEAR" style="shape=rhombus;perimeter=rhombusPerimeter;whiteSpace=wrap;html=1;align=center;" vertex="1" parent="1">
          <mxGeometry x="75" y="-641.25" width="80" height="60" as="geometry" />
        </mxCell>
        <mxCell id="b1G_TNFfmNyXQnpkvFNb-34" value="&lt;div style=&quot;text-align: left;&quot;&gt;Puntos_acumulados&lt;/div&gt;" style="ellipse;whiteSpace=wrap;html=1;align=center;" vertex="1" parent="1">
          <mxGeometry x="-106" y="-616.25" width="140" height="40" as="geometry" />
        </mxCell>
        <mxCell id="b1G_TNFfmNyXQnpkvFNb-35" value="" style="endArrow=none;html=1;rounded=0;entryX=0;entryY=0.5;entryDx=0;entryDy=0;exitX=1;exitY=0.5;exitDx=0;exitDy=0;" edge="1" parent="1" source="hm5V5F6ZDs41xRnVWTLm-79" target="hm5V5F6ZDs41xRnVWTLm-16">
          <mxGeometry relative="1" as="geometry">
            <mxPoint x="-220" y="-650" as="sourcePoint" />
            <mxPoint x="-176" y="-650" as="targetPoint" />
          </mxGeometry>
        </mxCell>
        <mxCell id="b1G_TNFfmNyXQnpkvFNb-36" value="1" style="resizable=0;html=1;whiteSpace=wrap;align=right;verticalAlign=bottom;" connectable="0" vertex="1" parent="b1G_TNFfmNyXQnpkvFNb-35">
          <mxGeometry x="1" relative="1" as="geometry">
            <mxPoint x="-11" y="20" as="offset" />
          </mxGeometry>
        </mxCell>
        <mxCell id="b1G_TNFfmNyXQnpkvFNb-37" value="" style="endArrow=none;html=1;rounded=0;entryX=0;entryY=0.5;entryDx=0;entryDy=0;exitX=1;exitY=0.5;exitDx=0;exitDy=0;" edge="1" parent="1" source="b1G_TNFfmNyXQnpkvFNb-20" target="b1G_TNFfmNyXQnpkvFNb-30">
          <mxGeometry relative="1" as="geometry">
            <mxPoint x="-210" y="-640" as="sourcePoint" />
            <mxPoint x="-166" y="-640" as="targetPoint" />
          </mxGeometry>
        </mxCell>
        <mxCell id="b1G_TNFfmNyXQnpkvFNb-38" value="1" style="resizable=0;html=1;whiteSpace=wrap;align=right;verticalAlign=bottom;" connectable="0" vertex="1" parent="b1G_TNFfmNyXQnpkvFNb-37">
          <mxGeometry x="1" relative="1" as="geometry">
            <mxPoint x="-46" y="90" as="offset" />
          </mxGeometry>
        </mxCell>
        <mxCell id="b1G_TNFfmNyXQnpkvFNb-41" value="&lt;div style=&quot;text-align: left;&quot;&gt;dias_gratiutos&lt;/div&gt;" style="ellipse;whiteSpace=wrap;html=1;align=center;" vertex="1" parent="1">
          <mxGeometry x="125" y="-710" width="80" height="40" as="geometry" />
        </mxCell>
        <mxCell id="b1G_TNFfmNyXQnpkvFNb-42" value="&lt;div style=&quot;text-align: left;&quot;&gt;descuentos&lt;/div&gt;" style="ellipse;whiteSpace=wrap;html=1;align=center;" vertex="1" parent="1">
          <mxGeometry x="35" y="-710" width="80" height="40" as="geometry" />
        </mxCell>
        <mxCell id="b1G_TNFfmNyXQnpkvFNb-43" value="" style="endArrow=none;html=1;rounded=0;exitX=0.5;exitY=0;exitDx=0;exitDy=0;entryX=0.5;entryY=1;entryDx=0;entryDy=0;" edge="1" parent="1" target="b1G_TNFfmNyXQnpkvFNb-42" source="b1G_TNFfmNyXQnpkvFNb-31">
          <mxGeometry relative="1" as="geometry">
            <mxPoint x="205" y="-630.25" as="sourcePoint" />
            <mxPoint x="405" y="-524.25" as="targetPoint" />
          </mxGeometry>
        </mxCell>
        <mxCell id="b1G_TNFfmNyXQnpkvFNb-44" value="" style="endArrow=none;html=1;rounded=0;exitX=0.5;exitY=0;exitDx=0;exitDy=0;entryX=0.5;entryY=1;entryDx=0;entryDy=0;" edge="1" parent="1" target="b1G_TNFfmNyXQnpkvFNb-41" source="b1G_TNFfmNyXQnpkvFNb-31">
          <mxGeometry relative="1" as="geometry">
            <mxPoint x="205" y="-630.25" as="sourcePoint" />
            <mxPoint x="185" y="-620.25" as="targetPoint" />
          </mxGeometry>
        </mxCell>
        <mxCell id="b1G_TNFfmNyXQnpkvFNb-45" value="" style="endArrow=none;html=1;rounded=0;exitX=0.5;exitY=0;exitDx=0;exitDy=0;entryX=0.5;entryY=1;entryDx=0;entryDy=0;" edge="1" parent="1" source="b1G_TNFfmNyXQnpkvFNb-34" target="b1G_TNFfmNyXQnpkvFNb-20">
          <mxGeometry relative="1" as="geometry">
            <mxPoint x="250" y="-580.25" as="sourcePoint" />
            <mxPoint x="220" y="-601" as="targetPoint" />
          </mxGeometry>
        </mxCell>
        <mxCell id="b1G_TNFfmNyXQnpkvFNb-46" value="" style="endArrow=none;html=1;rounded=0;exitX=0.5;exitY=0;exitDx=0;exitDy=0;entryX=0;entryY=0.5;entryDx=0;entryDy=0;" edge="1" parent="1" source="b1G_TNFfmNyXQnpkvFNb-30" target="hm5V5F6ZDs41xRnVWTLm-4">
          <mxGeometry relative="1" as="geometry">
            <mxPoint x="24" y="-650" as="sourcePoint" />
            <mxPoint x="170" y="-810" as="targetPoint" />
          </mxGeometry>
        </mxCell>
        <mxCell id="b1G_TNFfmNyXQnpkvFNb-47" value="1" style="resizable=0;html=1;whiteSpace=wrap;align=right;verticalAlign=bottom;" connectable="0" vertex="1" parent="b1G_TNFfmNyXQnpkvFNb-46">
          <mxGeometry x="1" relative="1" as="geometry">
            <mxPoint x="-11" y="20" as="offset" />
          </mxGeometry>
        </mxCell>
        <mxCell id="b1G_TNFfmNyXQnpkvFNb-50" value="" style="endArrow=none;html=1;rounded=0;entryX=0;entryY=0.5;entryDx=0;entryDy=0;exitX=1;exitY=0.5;exitDx=0;exitDy=0;" edge="1" parent="1" source="b1G_TNFfmNyXQnpkvFNb-20" target="b1G_TNFfmNyXQnpkvFNb-31">
          <mxGeometry relative="1" as="geometry">
            <mxPoint x="-220" y="-650" as="sourcePoint" />
            <mxPoint x="-190" y="-650" as="targetPoint" />
          </mxGeometry>
        </mxCell>
        <mxCell id="b1G_TNFfmNyXQnpkvFNb-51" value="1" style="resizable=0;html=1;whiteSpace=wrap;align=right;verticalAlign=bottom;" connectable="0" vertex="1" parent="b1G_TNFfmNyXQnpkvFNb-50">
          <mxGeometry x="1" relative="1" as="geometry">
            <mxPoint x="-80" y="-53" as="offset" />
          </mxGeometry>
        </mxCell>
        <mxCell id="b1G_TNFfmNyXQnpkvFNb-52" value="" style="endArrow=none;html=1;rounded=0;exitX=1;exitY=0.5;exitDx=0;exitDy=0;" edge="1" parent="1" source="b1G_TNFfmNyXQnpkvFNb-31">
          <mxGeometry relative="1" as="geometry">
            <mxPoint x="160" y="-611" as="sourcePoint" />
            <mxPoint x="230" y="-530" as="targetPoint" />
          </mxGeometry>
        </mxCell>
        <mxCell id="b1G_TNFfmNyXQnpkvFNb-53" value="N" style="resizable=0;html=1;whiteSpace=wrap;align=right;verticalAlign=bottom;" connectable="0" vertex="1" parent="b1G_TNFfmNyXQnpkvFNb-52">
          <mxGeometry x="1" relative="1" as="geometry">
            <mxPoint x="-20" as="offset" />
          </mxGeometry>
        </mxCell>
        <mxCell id="b1G_TNFfmNyXQnpkvFNb-56" value="" style="endArrow=none;html=1;rounded=0;exitX=0.5;exitY=1;exitDx=0;exitDy=0;entryX=0.5;entryY=0;entryDx=0;entryDy=0;" edge="1" parent="1" source="hm5V5F6ZDs41xRnVWTLm-75" target="hm5V5F6ZDs41xRnVWTLm-32">
          <mxGeometry relative="1" as="geometry">
            <mxPoint x="165" y="-601" as="sourcePoint" />
            <mxPoint x="240" y="-520" as="targetPoint" />
          </mxGeometry>
        </mxCell>
        <mxCell id="b1G_TNFfmNyXQnpkvFNb-57" value="N" style="resizable=0;html=1;whiteSpace=wrap;align=right;verticalAlign=bottom;" connectable="0" vertex="1" parent="b1G_TNFfmNyXQnpkvFNb-56">
          <mxGeometry x="1" relative="1" as="geometry">
            <mxPoint x="30" as="offset" />
          </mxGeometry>
        </mxCell>
        <mxCell id="b1G_TNFfmNyXQnpkvFNb-58" value="" style="endArrow=none;html=1;rounded=0;exitX=0.5;exitY=0;exitDx=0;exitDy=0;entryX=1;entryY=0.5;entryDx=0;entryDy=0;" edge="1" parent="1" source="hm5V5F6ZDs41xRnVWTLm-75" target="hm5V5F6ZDs41xRnVWTLm-4">
          <mxGeometry relative="1" as="geometry">
            <mxPoint x="110" y="-800" as="sourcePoint" />
            <mxPoint x="190" y="-800" as="targetPoint" />
          </mxGeometry>
        </mxCell>
        <mxCell id="b1G_TNFfmNyXQnpkvFNb-59" value="1" style="resizable=0;html=1;whiteSpace=wrap;align=right;verticalAlign=bottom;" connectable="0" vertex="1" parent="b1G_TNFfmNyXQnpkvFNb-58">
          <mxGeometry x="1" relative="1" as="geometry">
            <mxPoint x="20" y="10" as="offset" />
          </mxGeometry>
        </mxCell>
      </root>
    </mxGraphModel>
  </diagram>
</mxfile>
